<?xml version="1.0" encoding="UTF-8"?><svg id="katman_1" xmlns="http://www.w3.org/2000/svg" viewBox="20 20 1490 470"><defs><style>path{fill:currentColor;}.cls-1{fill:#00bd8d;}.cls-2{fill:#00bd8d;}.cls-3{fill:#0060ab;}</style></defs><path d="M85.36,538.17c4.03,2.05,7.13,4.99,9.28,8.81,2.15,3.82,3.23,8.31,3.23,13.48s-1.08,9.65-3.23,13.45c-2.15,3.79-5.24,6.69-9.28,8.7-4.04,2.01-8.81,3.01-14.32,3.01h-15.73v-50.53h15.73c5.51,0,10.28,1.03,14.32,3.08ZM85.97,574.99c3.43-3.46,5.15-8.3,5.15-14.53s-1.73-11.19-5.18-14.72c-3.46-3.53-8.42-5.29-14.9-5.29h-9.13v39.73h9.13c6.52,0,11.5-1.73,14.93-5.18Z"/><path d="M113.16,535.09v50.53h-6.6v-50.53h6.6Z"/><path d="M155.53,578.33c-1.14,2.06-2.8,3.78-5,5.18-2.2,1.4-4.82,2.25-7.87,2.54v4.13c2.85-.05,5.12.56,6.81,1.81,1.69,1.26,2.54,3.05,2.54,5.36s-.82,4.08-2.46,5.44c-1.64,1.35-3.77,2.03-6.38,2.03h-8.34v-4.28h7.03c1.59,0,2.77-.24,3.52-.72.75-.48,1.12-1.3,1.12-2.46s-.37-1.91-1.12-2.39c-.75-.48-1.92-.73-3.52-.73h-3.62v-8.19c-4.54-.39-8.22-1.84-11.02-4.35-2.8-2.51-4.23-5.7-4.28-9.57h7.03c.24,2.37,1.22,4.36,2.94,5.98,1.71,1.62,4.22,2.43,7.5,2.43s5.62-.79,7.43-2.36c1.81-1.57,2.72-3.59,2.72-6.05,0-1.93-.53-3.5-1.59-4.71-1.06-1.21-2.39-2.13-3.99-2.75-1.59-.63-3.75-1.31-6.45-2.03-3.33-.87-6.01-1.74-8.01-2.61-2.01-.87-3.72-2.24-5.15-4.1-1.43-1.86-2.14-4.36-2.14-7.5,0-2.75.7-5.19,2.1-7.32,1.4-2.13,3.37-3.77,5.91-4.93,2.54-1.16,5.45-1.74,8.73-1.74,4.74,0,8.61,1.19,11.64,3.55,3.02,2.37,4.72,5.51,5.11,9.42h-7.25c-.24-1.93-1.26-3.64-3.04-5.11-1.79-1.47-4.16-2.21-7.1-2.21-2.75,0-5,.71-6.74,2.14-1.74,1.43-2.61,3.42-2.61,5.98,0,1.84.52,3.33,1.56,4.49,1.04,1.16,2.32,2.04,3.84,2.65,1.52.6,3.66,1.29,6.42,2.07,3.33.92,6.02,1.82,8.05,2.72,2.03.9,3.77,2.27,5.22,4.13,1.45,1.86,2.17,4.39,2.17,7.58,0,2.27-.57,4.43-1.7,6.49Z"/><path d="M214.86,535.09v5.36h-21.97v17.04h17.83v5.36h-17.83v22.76h-6.6v-50.53h28.56Z"/><path d="M232.91,582.82c-3.87-2.2-6.92-5.27-9.17-9.21s-3.37-8.37-3.37-13.3,1.12-9.36,3.37-13.3c2.25-3.94,5.3-7.01,9.17-9.21,3.87-2.2,8.14-3.3,12.83-3.3s9.04,1.1,12.9,3.3c3.87,2.2,6.91,5.26,9.13,9.17,2.22,3.91,3.33,8.36,3.33,13.34s-1.11,9.42-3.33,13.34c-2.22,3.91-5.27,6.97-9.13,9.17-3.87,2.2-8.17,3.3-12.9,3.3s-8.96-1.1-12.83-3.3ZM255.27,577.93c2.83-1.64,5.05-3.99,6.67-7.03,1.62-3.05,2.43-6.57,2.43-10.58s-.81-7.6-2.43-10.62c-1.62-3.02-3.83-5.35-6.63-7-2.8-1.64-5.99-2.46-9.57-2.46s-6.77.82-9.57,2.46c-2.8,1.64-5.01,3.98-6.63,7-1.62,3.02-2.43,6.56-2.43,10.62s.81,7.54,2.43,10.58c1.62,3.04,3.84,5.39,6.67,7.03,2.83,1.64,6,2.46,9.53,2.46s6.71-.82,9.53-2.46Z"/><path d="M319.54,585.61h-6.6l-26.53-40.23v40.23h-6.6v-50.6h6.6l26.53,40.16v-40.16h6.6v50.6Z"/><path d="M337.37,580.25h17.69v5.36h-24.28v-50.53h6.6v45.16Z"/><path d="M391.95,574.38h-22.04l-4.06,11.24h-6.96l18.27-50.24h7.61l18.2,50.24h-6.96l-4.06-11.24ZM390.07,569.01l-9.13-25.52-9.13,25.52h18.27Z"/><path d="M437.55,585.61l-12.03-20.66h-7.97v20.66h-6.6v-50.53h16.31c3.82,0,7.04.65,9.68,1.96,2.63,1.3,4.6,3.07,5.91,5.29,1.31,2.22,1.96,4.76,1.96,7.61,0,3.48-1,6.55-3.01,9.21-2.01,2.66-5.01,4.42-9.03,5.29l12.69,21.17h-7.9ZM417.54,559.66h9.71c3.58,0,6.26-.88,8.05-2.65,1.79-1.76,2.68-4.12,2.68-7.07s-.88-5.32-2.65-6.96c-1.76-1.64-4.46-2.46-8.08-2.46h-9.71v19.14Z"/><path d="M505.47,535.09v5.36h-13.77v45.16h-6.6v-45.16h-13.85v-5.36h34.22Z"/><path d="M543.46,574.38h-22.04l-4.06,11.24h-6.96l18.27-50.24h7.61l18.2,50.24h-6.96l-4.06-11.24ZM541.57,569.01l-9.13-25.52-9.13,25.52h18.27Z"/><path d="M589.85,585.61l-20.81-23.05v23.05h-6.6v-50.53h6.6v23.41l20.88-23.41h8.34l-22.91,25.3,23.12,25.23h-8.63Z"/><path d="M612.47,535.09v50.53h-6.6v-50.53h6.6Z"/><path d="M674.96,535.45v50.16h-6.6v-37.41l-16.67,37.41h-4.64l-16.75-37.48v37.48h-6.6v-50.16h7.1l18.56,41.47,18.56-41.47h7.03Z"/><path d="M692.72,535.09v50.53h-6.6v-50.53h6.6Z"/><path class="cls-1" d="M734.97,539.83v16.89h18.41v5.44h-18.41v17.4h20.59v5.44h-27.18v-50.6h27.18v5.44h-20.59Z"/><path class="cls-1" d="M786.23,559.77l15.51,25.23h-7.47l-12.11-19.72-11.53,19.72h-7.32l15.44-25.23-15.51-25.3h7.39l12.18,19.79,11.6-19.79h7.39l-15.59,25.3Z"/><path class="cls-1" d="M841.68,534.47v5.36h-13.77v45.16h-6.6v-45.16h-13.85v-5.36h34.22Z"/><path class="cls-1" d="M856.39,539.83v16.89h18.41v5.44h-18.41v17.4h20.59v5.44h-27.18v-50.6h27.18v5.44h-20.59Z"/><path class="cls-1" d="M913.59,585l-12.03-20.66h-7.97v20.66h-6.6v-50.53h16.31c3.82,0,7.04.65,9.68,1.96,2.63,1.3,4.6,3.07,5.91,5.29,1.31,2.22,1.96,4.76,1.96,7.61,0,3.48-1,6.55-3.01,9.21-2.01,2.66-5.01,4.42-9.03,5.29l12.69,21.17h-7.9ZM893.58,559.04h9.71c3.58,0,6.26-.88,8.05-2.65,1.79-1.76,2.68-4.12,2.68-7.07s-.88-5.32-2.65-6.96c-1.76-1.64-4.46-2.46-8.08-2.46h-9.71v19.14Z"/><path class="cls-1" d="M970.78,585h-6.6l-26.53-40.23v40.23h-6.6v-50.6h6.6l26.53,40.16v-40.16h6.6v50.6Z"/><path class="cls-1" d="M1011.89,573.76h-22.04l-4.06,11.24h-6.96l18.27-50.24h7.61l18.2,50.24h-6.96l-4.06-11.24ZM1010,568.4l-9.13-25.52-9.13,25.52h18.27Z"/><path class="cls-1" d="M1037.48,579.63h17.69v5.36h-24.28v-50.53h6.6v45.16Z"/><path class="cls-1" d="M1110.11,534.47v5.36h-21.97v17.04h17.83v5.36h-17.83v22.76h-6.6v-50.53h28.56Z"/><path class="cls-1" d="M1124.54,534.47v31.97c0,4.49,1.1,7.83,3.3,10,2.2,2.17,5.26,3.26,9.17,3.26s6.9-1.09,9.1-3.26c2.2-2.17,3.3-5.51,3.3-10v-31.97h6.6v31.9c0,4.2-.85,7.75-2.54,10.62-1.69,2.88-3.98,5.01-6.85,6.42-2.88,1.4-6.1,2.1-9.68,2.1s-6.8-.7-9.68-2.1c-2.88-1.4-5.15-3.54-6.81-6.42-1.67-2.87-2.5-6.42-2.5-10.62v-31.9h6.6Z"/><path class="cls-1" d="M1206.74,585h-6.6l-26.53-40.23v40.23h-6.6v-50.6h6.6l26.53,40.16v-40.16h6.6v50.6Z"/><path class="cls-1" d="M1248.02,537.55c4.03,2.05,7.13,4.99,9.28,8.81,2.15,3.82,3.23,8.31,3.23,13.48s-1.08,9.65-3.23,13.45c-2.15,3.79-5.24,6.69-9.28,8.7-4.04,2.01-8.81,3.01-14.32,3.01h-15.73v-50.53h15.73c5.51,0,10.28,1.03,14.32,3.08ZM1248.64,574.38c3.43-3.46,5.15-8.3,5.15-14.53s-1.73-11.19-5.18-14.72c-3.46-3.53-8.42-5.29-14.9-5.29h-9.13v39.73h9.13c6.52,0,11.5-1.73,14.93-5.18Z"/><path class="cls-1" d="M1276.29,583.73c-2.63-1.18-4.7-2.83-6.2-4.93-1.5-2.1-2.27-4.53-2.32-7.28h7.03c.24,2.37,1.22,4.36,2.94,5.98,1.71,1.62,4.22,2.43,7.5,2.43s5.62-.79,7.43-2.36c1.81-1.57,2.72-3.59,2.72-6.05,0-1.93-.53-3.5-1.59-4.71-1.06-1.21-2.39-2.13-3.99-2.75-1.59-.63-3.75-1.31-6.45-2.03-3.33-.87-6.01-1.74-8.01-2.61-2.01-.87-3.72-2.24-5.15-4.1-1.43-1.86-2.14-4.36-2.14-7.5,0-2.75.7-5.19,2.1-7.32,1.4-2.13,3.37-3.77,5.91-4.93,2.54-1.16,5.45-1.74,8.73-1.74,4.74,0,8.61,1.19,11.64,3.55,3.02,2.37,4.72,5.51,5.11,9.42h-7.25c-.24-1.93-1.26-3.64-3.04-5.11-1.79-1.47-4.16-2.21-7.1-2.21-2.75,0-5,.71-6.74,2.14-1.74,1.43-2.61,3.42-2.61,5.98,0,1.84.52,3.33,1.56,4.49,1.04,1.16,2.32,2.04,3.84,2.65,1.52.6,3.66,1.29,6.42,2.07,3.33.92,6.02,1.82,8.05,2.72,2.03.9,3.77,2.27,5.22,4.13,1.45,1.86,2.17,4.39,2.17,7.58,0,2.46-.65,4.78-1.96,6.96-1.3,2.17-3.24,3.94-5.8,5.29-2.56,1.35-5.58,2.03-9.06,2.03s-6.32-.59-8.95-1.78Z"/><path class="cls-1" d="M1362.23,534.47v5.36h-13.77v45.16h-6.6v-45.16h-13.85v-5.36h34.22Z"/><path class="cls-1" d="M1376.95,539.83v16.89h18.41v5.44h-18.41v17.4h20.59v5.44h-27.18v-50.6h27.18v5.44h-20.59Z"/><path class="cls-1" d="M1437.4,573.76h-22.04l-4.06,11.24h-6.96l18.27-50.24h7.61l18.2,50.24h-6.96l-4.06-11.24ZM1435.52,568.4l-9.13-25.52-9.13,25.52h18.27Z"/><path class="cls-1" d="M1507.65,534.83v50.16h-6.6v-37.41l-16.67,37.41h-4.64l-16.75-37.48v37.48h-6.6v-50.16h7.1l18.56,41.47,18.56-41.47h7.03Z"/><path class="cls-3" d="M1199.13,63.16v71.04h-148.3v76.74h110.96v68.96h-110.96v147.26h-88.67V63.16h236.96Z"/><path class="cls-3" d="M1507.65,63.16v71.04h-96.45v292.97h-88.67V134.19h-96.44V63.16h281.56Z"/><path class="cls-3" d="M804.89,165.04c19.08,19.08,28.76,46.04,28.76,80.12s-9.68,60.88-28.77,79.62c-19.07,18.73-46.02,28.22-80.1,28.22h-39.42v71.59h45.13c37.43,0,70.79-7.58,99.13-22.52,28.28-14.9,50.44-36.2,65.85-63.29,15.43-27.14,23.26-58.63,23.26-93.62s-7.83-66.9-23.25-93.87c-15.41-26.92-37.48-48.13-65.6-63.04-28.2-14.94-61.63-22.51-99.38-22.51h-45.13v70.55h39.42c34.09,0,61.04,9.67,80.12,28.76Z"/><polygon class="cls-1" points="677.05 138.86 677.05 63.16 588.38 63.16 588.38 427.16 677.05 427.16 677.05 350.42 677.05 138.86"/><rect class="cls-2" x="691.57" y="220.59" width="119.26" height="57.95"/><path class="cls-3" d="M184.19,271.77c-.32,32.48,9.75,68.51,24.18,97.54,4.26,8.56,10.97,16.37,14.69,25.2h-40.91c-18.89-37.18-32.55-77.33-35.09-119.36l-2.75-3.38H55.31c8.15,93.41,81.5,164.28,168.12,198.66,7.56,3,25.07,7.95,42.48,7.95l-1.94-206.61h-79.78ZM242.49,336.97c-2.3,2.18-5.63,3.27-9.99,3.27s-7.58-1.09-10.26-3.27c-2.68-2.18-4.22-5.27-4.62-9.27h4.08c.36,2.68,1.48,4.85,3.36,6.51,1.88,1.66,4.36,2.49,7.44,2.49s5.37-.8,6.99-2.4c1.62-1.6,2.43-3.64,2.43-6.12,0-6.08-4.38-9.12-13.14-9.12h-1.32v-3.54h1.38c8.16,0,12.24-2.66,12.24-7.98,0-2.32-.76-4.19-2.28-5.61-1.52-1.42-3.68-2.13-6.48-2.13s-4.97.71-6.75,2.13c-1.78,1.42-2.83,3.41-3.15,5.97h-4.08c.28-3.64,1.69-6.51,4.23-8.61,2.54-2.1,5.83-3.15,9.87-3.15,2.68,0,4.98.48,6.9,1.44s3.37,2.27,4.35,3.93c.98,1.66,1.47,3.53,1.47,5.61,0,2.52-.74,4.7-2.22,6.54-1.48,1.84-3.58,2.98-6.3,3.42v.3c2.84.56,5.1,1.79,6.78,3.69,1.68,1.9,2.52,4.39,2.52,7.47,0,3.44-1.15,6.25-3.45,8.43Z"/><path class="cls-3" d="M365.19,155.2c-5.43-13.31-13.88-25.63-19.4-38.9h37.84c21.55,34.29,31.83,74.92,34.07,115.27l2.76,3.38h93.08c-4.95-111.2-100.82-201.82-210.7-208.66v208.66h79.78c-.49-26.85-7.33-54.98-17.42-79.75ZM347.94,222.67l-10.38-17.52h-7.74v17.52h-4.2v-41.94h12.6c4.68,0,8.23,1.12,10.65,3.36,2.42,2.24,3.63,5.18,3.63,8.82,0,3.04-.87,5.63-2.61,7.77-1.74,2.14-4.31,3.53-7.71,4.17l10.8,17.82h-5.04Z"/><path class="cls-3" d="M348.18,192.91c0-2.76-.8-4.89-2.4-6.39-1.6-1.5-4.12-2.25-7.56-2.25h-8.4v17.46h8.46c3.28,0,5.75-.8,7.41-2.4,1.66-1.6,2.49-3.74,2.49-6.42Z"/><path class="cls-3" d="M381.59,394.51h-39.89c24.87-35.71,40.72-78.8,40.91-122.74h-79.78v206.61c108.46-6.86,205.55-96.63,210.7-206.61h-94.1c-3.73,43.05-13.32,86.66-37.84,122.74ZM328.44,336.97c-2.68-2.18-4.22-5.27-4.62-9.27h4.08c.36,2.68,1.48,4.85,3.36,6.51,1.88,1.66,4.36,2.49,7.44,2.49s5.37-.8,6.99-2.4,2.43-3.64,2.43-6.12c0-6.08-4.38-9.12-13.14-9.12h-1.32v-3.54h1.38c8.16,0,12.24-2.66,12.24-7.98,0-2.32-.76-4.19-2.28-5.61-1.52-1.42-3.68-2.13-6.48-2.13s-4.97.71-6.75,2.13c-1.78,1.42-2.83,3.41-3.15,5.97h-4.08c.28-3.64,1.69-6.51,4.23-8.61,2.54-2.1,5.83-3.15,9.87-3.15,2.68,0,4.98.48,6.9,1.44s3.37,2.27,4.35,3.93c.98,1.66,1.47,3.53,1.47,5.61,0,2.52-.74,4.7-2.22,6.54-1.48,1.84-3.58,2.98-6.3,3.42v.3c2.84.56,5.1,1.79,6.78,3.69,1.68,1.9,2.52,4.39,2.52,7.47,0,3.44-1.15,6.25-3.45,8.43-2.3,2.18-5.63,3.27-9.99,3.27s-7.58-1.09-10.26-3.27Z"/><path class="cls-3" d="M145.32,234.94c6.26-40.76,14.06-84.18,37.84-118.65h37.84c-21.34,35.49-37.06,76.69-36.82,118.65h79.78V29.36c-5.71-4.1-19.17.43-26.61,2.03-94.05,20.13-171.68,102.14-182.1,198.48l3.12,5.08h86.94ZM243.96,180.72v3.48h-11.64v38.46h-4.2v-38.46h-11.7v-3.48h27.54Z"/></svg>