<?xml version="1.0" encoding="UTF-8"?><svg id="katman_1" xmlns="http://www.w3.org/2000/svg" viewBox="0 0 1709.75 512"><defs><style>.cls-1{fill:#00bd8d;}.cls-2{fill:#0060ab;}</style></defs><path class="cls-2" d="M359.63,192.74c0-2.76-.8-4.89-2.4-6.39-1.6-1.5-4.12-2.25-7.56-2.25h-8.4v17.46h8.46c3.28,0,5.75-.8,7.41-2.4,1.66-1.6,2.49-3.74,2.49-6.42h0Z"/><path class="cls-2" d="M380.46,156.96c-5.53-13.57-14.16-26.14-19.78-39.67h38.59c21.98,34.96,32.46,76.39,34.73,117.53l2.81,3.45h94.91c-5.04-113.39-102.8-205.79-214.84-212.76v212.76h81.35c-.5-27.38-7.47-56.06-17.77-81.31h0ZM359.39,222.5l-10.38-17.52h-7.74v17.52h-4.2v-41.94h12.6c4.68,0,8.23,1.12,10.65,3.36,2.42,2.24,3.63,5.18,3.63,8.82,0,3.04-.87,5.63-2.61,7.77s-4.31,3.53-7.71,4.17l10.8,17.82h-5.04Z"/><path class="cls-2" d="M397.18,400.97h-40.67c25.36-36.41,41.52-80.35,41.72-125.15h-81.35v210.67c110.59-7,209.59-98.53,214.84-210.67h-95.95c-3.81,43.89-13.58,88.37-38.59,125.15h0ZM339.89,336.81c-2.68-2.18-4.22-5.27-4.62-9.27h4.08c.36,2.68,1.48,4.85,3.36,6.51s4.36,2.49,7.44,2.49,5.37-.8,6.99-2.4,2.43-3.64,2.43-6.12c0-6.08-4.38-9.12-13.14-9.12h-1.32v-3.54h1.38c8.16,0,12.24-2.66,12.24-7.98,0-2.32-.76-4.19-2.28-5.61-1.52-1.42-3.68-2.13-6.48-2.13s-4.97.71-6.75,2.13-2.83,3.41-3.15,5.97h-4.08c.28-3.64,1.69-6.51,4.23-8.61,2.54-2.1,5.83-3.15,9.87-3.15,2.68,0,4.98.48,6.9,1.44s3.37,2.27,4.35,3.93,1.47,3.53,1.47,5.61c0,2.52-.74,4.7-2.22,6.54s-3.58,2.98-6.3,3.42v.3c2.84.56,5.1,1.79,6.78,3.69,1.68,1.9,2.52,4.39,2.52,7.47,0,3.44-1.15,6.25-3.45,8.43s-5.63,3.27-9.99,3.27-7.58-1.09-10.26-3.27h0Z"/><path class="cls-2" d="M156.26,238.28c6.39-41.56,14.34-85.83,38.59-120.98h38.59c-21.76,36.19-37.79,78.19-37.55,120.98h81.35V28.65c-5.82-4.18-19.55.44-27.14,2.07-95.9,20.53-175.05,104.15-185.68,202.38l3.19,5.18h88.65,0ZM255.41,180.56v3.48h-11.64v38.46h-4.2v-38.46h-11.7v-3.48h27.54Z"/><path class="cls-2" d="M195.89,275.82c-.33,33.12,9.94,69.86,24.66,99.45,4.34,8.72,11.19,16.69,14.97,25.7h-41.72c-19.26-37.91-33.19-78.85-35.78-121.7l-2.81-3.45h-90.73c8.31,95.24,80.21,177.97,172.05,202.36,6.67,1.77,40.18,11.36,42.64,2.84l-1.93-205.2h-81.35ZM253.94,336.81c-2.3,2.18-5.63,3.27-9.99,3.27s-7.58-1.09-10.26-3.27c-2.68-2.18-4.22-5.27-4.62-9.27h4.08c.36,2.68,1.48,4.85,3.36,6.51,1.88,1.66,4.36,2.49,7.44,2.49s5.37-.8,6.99-2.4,2.43-3.64,2.43-6.12c0-6.08-4.38-9.12-13.14-9.12h-1.32v-3.54h1.38c8.16,0,12.24-2.66,12.24-7.98,0-2.32-.76-4.19-2.28-5.61-1.52-1.42-3.68-2.13-6.48-2.13s-4.97.71-6.75,2.13-2.83,3.41-3.15,5.97h-4.08c.28-3.64,1.69-6.51,4.23-8.61,2.54-2.1,5.83-3.15,9.87-3.15,2.68,0,4.98.48,6.9,1.44s3.37,2.27,4.35,3.93,1.47,3.53,1.47,5.61c0,2.52-.74,4.7-2.22,6.54s-3.58,2.98-6.3,3.42v.3c2.84.56,5.1,1.79,6.78,3.69s2.52,4.39,2.52,7.47c0,3.44-1.15,6.25-3.45,8.43h0Z"/><path class="cls-2" d="M1308.89,57.52v77.47h-161.72v83.68h121.01v75.21h-121.01v160.58h-96.69V57.52h258.41Z"/><path class="cls-2" d="M1645.34,57.52v77.47h-105.17v319.49h-96.69V134.99h-105.17V57.52h307.04Z"/><path class="cls-2" d="M878.93,168.66c20.8,20.8,31.34,50.17,31.34,87.34s-10.55,66.36-31.36,86.79c-20.78,20.41-50.17,30.75-87.32,30.75h-43.04v78.17h49.27c40.84,0,77.21-8.27,108.13-24.56,30.85-16.26,55.02-39.48,71.83-69.04,16.83-29.6,25.37-63.95,25.37-102.11s-8.54-72.97-25.37-102.4c-16.81-29.38-40.89-52.5-71.56-68.76-30.75-16.3-67.22-24.56-108.41-24.56h-49.27v77.05h43.04c37.16,0,66.54,10.55,87.34,31.34h0Z"/><rect class="cls-1" x="645.62" y="60.27" width="91.18" height="391.43"/><rect class="cls-1" x="755.38" y="223.83" width="130.05" height="63.2"/></svg>