<?xml version="1.0" encoding="UTF-8"?><svg id="katman_1" xmlns="http://www.w3.org/2000/svg" viewBox="0 0 1555.78 652.11"><defs><style>.cls-1{fill:#00bd8d;}.cls-2{fill:#00bd8d;}.cls-3{fill:#0060ab;}</style></defs><path d="M645.22,378.46c4.51,2.3,7.98,5.58,10.38,9.86,2.41,4.27,3.61,9.3,3.61,15.09s-1.2,10.8-3.61,15.05c-2.41,4.25-5.87,7.49-10.38,9.73-4.52,2.24-9.85,3.37-16.02,3.37h-17.6v-56.54h17.6c6.16,0,11.5,1.15,16.02,3.45ZM645.91,419.66c3.84-3.87,5.76-9.29,5.76-16.26s-1.93-12.52-5.8-16.47c-3.87-3.95-9.42-5.92-16.67-5.92h-10.22v44.45h10.22c7.3,0,12.87-1.93,16.71-5.8Z"/><path d="M676.33,375.01v56.54h-7.38v-56.54h7.38Z"/><path d="M723.74,423.4c-1.27,2.3-3.14,4.23-5.6,5.8-2.46,1.57-5.39,2.51-8.8,2.84v4.62c3.19-.05,5.73.62,7.62,2.03,1.89,1.41,2.84,3.41,2.84,6s-.92,4.57-2.76,6.08c-1.84,1.51-4.22,2.27-7.14,2.27h-9.33v-4.79h7.87c1.78,0,3.1-.27,3.93-.81.84-.54,1.26-1.46,1.26-2.76s-.42-2.14-1.26-2.68c-.84-.54-2.15-.81-3.93-.81h-4.06v-9.17c-5.08-.43-9.19-2.05-12.33-4.87-3.14-2.81-4.73-6.38-4.79-10.71h7.87c.27,2.65,1.36,4.88,3.29,6.69,1.92,1.81,4.72,2.72,8.4,2.72s6.29-.88,8.31-2.64c2.03-1.76,3.04-4.01,3.04-6.77,0-2.16-.6-3.92-1.78-5.27-1.19-1.35-2.68-2.38-4.46-3.08-1.78-.7-4.19-1.46-7.22-2.27-3.73-.97-6.72-1.95-8.96-2.92-2.24-.97-4.17-2.5-5.76-4.58-1.6-2.08-2.39-4.88-2.39-8.4,0-3.08.78-5.81,2.35-8.19,1.57-2.38,3.77-4.22,6.61-5.52,2.84-1.3,6.1-1.95,9.77-1.95,5.3,0,9.64,1.33,13.02,3.97,3.38,2.65,5.28,6.17,5.72,10.54h-8.11c-.27-2.16-1.41-4.07-3.41-5.72-2-1.65-4.65-2.47-7.95-2.47-3.08,0-5.6.8-7.54,2.39-1.95,1.6-2.92,3.83-2.92,6.69,0,2.06.58,3.73,1.74,5.03,1.16,1.3,2.6,2.29,4.3,2.96,1.7.68,4.1,1.45,7.18,2.31,3.73,1.03,6.73,2.04,9,3.04,2.27,1,4.22,2.54,5.84,4.62,1.62,2.08,2.43,4.91,2.43,8.48,0,2.54-.64,4.96-1.91,7.26Z"/><path d="M790.13,375.01v6h-24.58v19.06h19.95v6h-19.95v25.47h-7.38v-56.54h31.96Z"/><path d="M810.32,428.42c-4.33-2.46-7.75-5.89-10.26-10.3s-3.77-9.37-3.77-14.88,1.26-10.48,3.77-14.88c2.51-4.41,5.93-7.84,10.26-10.3,4.33-2.46,9.11-3.69,14.36-3.69s10.11,1.23,14.44,3.69c4.33,2.46,7.73,5.88,10.22,10.26,2.49,4.38,3.73,9.36,3.73,14.92s-1.24,10.54-3.73,14.92c-2.49,4.38-5.89,7.8-10.22,10.26-4.33,2.46-9.14,3.69-14.44,3.69s-10.03-1.23-14.36-3.69ZM835.35,422.95c3.16-1.84,5.65-4.46,7.46-7.87,1.81-3.41,2.72-7.35,2.72-11.84s-.91-8.5-2.72-11.88c-1.81-3.38-4.29-5.99-7.42-7.83-3.14-1.84-6.71-2.76-10.71-2.76s-7.57.92-10.71,2.76c-3.14,1.84-5.61,4.45-7.42,7.83-1.81,3.38-2.72,7.34-2.72,11.88s.91,8.44,2.72,11.84c1.81,3.41,4.3,6.03,7.46,7.87,3.16,1.84,6.72,2.76,10.67,2.76s7.5-.92,10.67-2.76Z"/><path d="M907.26,431.55h-7.38l-29.69-45.02v45.02h-7.38v-56.62h7.38l29.69,44.94v-44.94h7.38v56.62Z"/><path d="M927.21,425.55h19.79v6h-27.17v-56.54h7.38v50.53Z"/><path d="M988.29,418.98h-24.66l-4.54,12.57h-7.79l20.44-56.21h8.52l20.36,56.21h-7.79l-4.54-12.57ZM986.18,412.97l-10.22-28.55-10.22,28.55h20.44Z"/><path d="M1039.31,431.55l-13.46-23.12h-8.92v23.12h-7.38v-56.54h18.25c4.27,0,7.88.73,10.83,2.19,2.95,1.46,5.15,3.43,6.61,5.92,1.46,2.49,2.19,5.33,2.19,8.52,0,3.89-1.12,7.33-3.37,10.3-2.24,2.97-5.61,4.95-10.1,5.92l14.19,23.69h-8.84ZM1016.92,402.51h10.87c4,0,7-.99,9-2.96,2-1.97,3-4.61,3-7.91s-.99-5.95-2.96-7.79c-1.97-1.84-4.99-2.76-9.04-2.76h-10.87v21.41Z"/><path d="M1115.31,375.01v6h-15.41v50.53h-7.38v-50.53h-15.49v-6h38.29Z"/><path d="M1157.81,418.98h-24.66l-4.54,12.57h-7.79l20.44-56.21h8.52l20.36,56.21h-7.79l-4.54-12.57ZM1155.7,412.97l-10.22-28.55-10.22,28.55h20.44Z"/><path d="M1209.72,431.55l-23.28-25.79v25.79h-7.38v-56.54h7.38v26.2l23.36-26.2h9.33l-25.63,28.31,25.88,28.23h-9.65Z"/><path d="M1235.03,375.01v56.54h-7.38v-56.54h7.38Z"/><path d="M1304.95,375.42v56.13h-7.38v-41.85l-18.66,41.85h-5.19l-18.74-41.94v41.94h-7.38v-56.13h7.95l20.77,46.4,20.77-46.4h7.87Z"/><path d="M1324.82,375.01v56.54h-7.38v-56.54h7.38Z"/><path d="M618.98,478.35v18.9h20.6v6.08h-20.6v19.47h23.04v6.08h-30.42v-56.62h30.42v6.08h-23.04Z"/><path d="M676.33,500.66l17.36,28.23h-8.35l-13.55-22.06-12.9,22.06h-8.19l17.28-28.23-17.36-28.31h8.27l13.63,22.14,12.98-22.14h8.27l-17.44,28.31Z"/><path d="M738.38,472.35v6h-15.41v50.53h-7.38v-50.53h-15.49v-6h38.29Z"/><path d="M754.84,478.35v18.9h20.6v6.08h-20.6v19.47h23.04v6.08h-30.42v-56.62h30.42v6.08h-23.04Z"/><path d="M818.84,528.88l-13.46-23.12h-8.92v23.12h-7.38v-56.54h18.25c4.27,0,7.88.73,10.83,2.19,2.95,1.46,5.15,3.43,6.61,5.92,1.46,2.49,2.19,5.33,2.19,8.52,0,3.89-1.12,7.33-3.37,10.3-2.24,2.97-5.61,4.95-10.1,5.92l14.19,23.69h-8.84ZM796.45,499.85h10.87c4,0,7-.99,9-2.96,2-1.97,3-4.61,3-7.91s-.99-5.95-2.96-7.79c-1.97-1.84-4.99-2.76-9.04-2.76h-10.87v21.41Z"/><path d="M882.84,528.88h-7.38l-29.69-45.02v45.02h-7.38v-56.62h7.38l29.69,44.94v-44.94h7.38v56.62Z"/><path d="M928.83,516.31h-24.66l-4.54,12.57h-7.79l20.44-56.21h8.52l20.36,56.21h-7.79l-4.54-12.57ZM926.72,510.31l-10.22-28.55-10.22,28.55h20.44Z"/><path d="M957.46,522.88h19.79v6h-27.17v-56.54h7.38v50.53Z"/><path d="M1038.74,472.35v6h-24.58v19.06h19.95v6h-19.95v25.47h-7.38v-56.54h31.96Z"/><path d="M1054.88,472.35v35.77c0,5.03,1.23,8.76,3.69,11.19,2.46,2.43,5.88,3.65,10.26,3.65s7.72-1.22,10.18-3.65c2.46-2.43,3.69-6.17,3.69-11.19v-35.77h7.38v35.69c0,4.71-.95,8.67-2.84,11.88-1.89,3.22-4.45,5.61-7.67,7.18-3.22,1.57-6.83,2.35-10.83,2.35s-7.61-.78-10.83-2.35c-3.22-1.57-5.76-3.96-7.62-7.18-1.87-3.22-2.8-7.18-2.8-11.88v-35.69h7.38Z"/><path d="M1146.86,528.88h-7.38l-29.69-45.02v45.02h-7.38v-56.62h7.38l29.69,44.94v-44.94h7.38v56.62Z"/><path d="M1193.05,475.8c4.51,2.3,7.98,5.58,10.38,9.86,2.41,4.27,3.61,9.3,3.61,15.09s-1.2,10.8-3.61,15.05c-2.41,4.25-5.87,7.49-10.38,9.73-4.52,2.24-9.85,3.37-16.02,3.37h-17.6v-56.54h17.6c6.16,0,11.5,1.15,16.02,3.45ZM1193.74,517c3.84-3.87,5.76-9.29,5.76-16.26s-1.93-12.52-5.8-16.47c-3.87-3.95-9.42-5.92-16.67-5.92h-10.22v44.45h10.22c7.3,0,12.87-1.93,16.71-5.8Z"/><path d="M1224.69,527.46c-2.95-1.32-5.26-3.16-6.94-5.52-1.68-2.35-2.54-5.07-2.6-8.15h7.87c.27,2.65,1.36,4.88,3.29,6.69,1.92,1.81,4.72,2.72,8.4,2.72s6.29-.88,8.31-2.64c2.03-1.76,3.04-4.01,3.04-6.77,0-2.16-.6-3.92-1.78-5.27-1.19-1.35-2.68-2.38-4.46-3.08-1.78-.7-4.19-1.46-7.22-2.27-3.73-.97-6.72-1.95-8.96-2.92-2.24-.97-4.17-2.5-5.76-4.58-1.6-2.08-2.39-4.88-2.39-8.4,0-3.08.78-5.81,2.35-8.19,1.57-2.38,3.77-4.22,6.61-5.52,2.84-1.3,6.1-1.95,9.77-1.95,5.3,0,9.64,1.33,13.02,3.97,3.38,2.65,5.28,6.17,5.72,10.54h-8.11c-.27-2.16-1.41-4.07-3.41-5.72-2-1.65-4.65-2.47-7.95-2.47-3.08,0-5.6.8-7.54,2.39-1.95,1.6-2.92,3.83-2.92,6.69,0,2.06.58,3.73,1.74,5.03,1.16,1.3,2.6,2.29,4.3,2.96,1.7.68,4.1,1.45,7.18,2.31,3.73,1.03,6.73,2.04,9,3.04,2.27,1,4.22,2.54,5.84,4.62,1.62,2.08,2.43,4.91,2.43,8.48,0,2.76-.73,5.35-2.19,7.79-1.46,2.43-3.62,4.41-6.49,5.92-2.87,1.51-6.25,2.27-10.14,2.27s-7.07-.66-10.02-1.99Z"/><path d="M1320.85,472.35v6h-15.41v50.53h-7.38v-50.53h-15.49v-6h38.29Z"/><path d="M1337.31,478.35v18.9h20.6v6.08h-20.6v19.47h23.04v6.08h-30.42v-56.62h30.42v6.08h-23.04Z"/><path d="M1404.96,516.31h-24.66l-4.54,12.57h-7.79l20.44-56.21h8.52l20.36,56.21h-7.79l-4.54-12.57ZM1402.85,510.31l-10.22-28.55-10.22,28.55h20.44Z"/><path d="M1483.56,472.75v56.13h-7.38v-41.85l-18.66,41.85h-5.19l-18.74-41.94v41.94h-7.38v-56.13h7.95l20.77,46.4,20.77-46.4h7.87Z"/><path class="cls-3" d="M960.9,136.88v41.35h-86.33v44.68h64.6v40.15h-64.6v85.73h-51.62v-211.91h137.95Z"/><path class="cls-3" d="M1140.51,136.88v41.35h-56.15v170.55h-51.62v-170.55h-56.15v-41.35h163.91Z"/><path class="cls-3" d="M731.4,196.19c11.11,11.11,16.74,26.8,16.74,46.64s-5.64,35.44-16.75,46.35c-11.1,10.9-26.79,16.43-46.63,16.43h-22.95v41.67h26.27c21.79,0,41.21-4.41,57.71-13.11,16.47-8.68,29.36-21.07,38.33-36.85,8.98-15.8,13.54-34.13,13.54-54.5s-4.56-38.95-13.54-54.65c-8.97-15.67-21.82-28.02-38.19-36.7-16.41-8.7-35.88-13.11-57.86-13.11h-26.27v41.07h22.95c19.84,0,35.54,5.63,46.64,16.74Z"/><polygon class="cls-1" points="656.97 180.95 656.97 136.88 605.35 136.88 605.35 348.79 656.97 348.79 656.97 304.12 656.97 180.95"/><rect class="cls-2" x="665.42" y="228.53" width="69.43" height="33.74"/><path class="cls-3" d="M201.15,345.49c-.32,32.48,9.75,68.51,24.18,97.54,4.26,8.56,10.97,16.37,14.69,25.2h-40.91c-18.89-37.18-32.55-77.33-35.09-119.36l-2.75-3.38h-88.99c8.15,93.41,81.5,164.28,168.12,198.66,7.56,3,25.07,7.95,42.48,7.95l-1.94-206.61h-79.78ZM259.46,410.69c-2.3,2.18-5.63,3.27-9.99,3.27s-7.58-1.09-10.26-3.27c-2.68-2.18-4.22-5.27-4.62-9.27h4.08c.36,2.68,1.48,4.85,3.36,6.51,1.88,1.66,4.36,2.49,7.44,2.49s5.37-.8,6.99-2.4c1.62-1.6,2.43-3.64,2.43-6.12,0-6.08-4.38-9.12-13.14-9.12h-1.32v-3.54h1.38c8.16,0,12.24-2.66,12.24-7.98,0-2.32-.76-4.19-2.28-5.61-1.52-1.42-3.68-2.13-6.48-2.13s-4.97.71-6.75,2.13c-1.78,1.42-2.83,3.41-3.15,5.97h-4.08c.28-3.64,1.69-6.51,4.23-8.61,2.54-2.1,5.83-3.15,9.87-3.15,2.68,0,4.98.48,6.9,1.44s3.37,2.27,4.35,3.93c.98,1.66,1.47,3.53,1.47,5.61,0,2.52-.74,4.7-2.22,6.54-1.48,1.84-3.58,2.98-6.3,3.42v.3c2.84.56,5.1,1.79,6.78,3.69,1.68,1.9,2.52,4.39,2.52,7.47,0,3.44-1.15,6.25-3.45,8.43Z"/><path class="cls-3" d="M382.16,228.92c-5.43-13.31-13.88-25.63-19.4-38.9h37.84c21.55,34.29,31.83,74.92,34.07,115.27l2.76,3.38h93.08c-4.95-111.2-100.82-201.82-210.7-208.66v208.66h79.78c-.49-26.85-7.33-54.98-17.42-79.75ZM364.91,296.39l-10.38-17.52h-7.74v17.52h-4.2v-41.94h12.6c4.68,0,8.23,1.12,10.65,3.36,2.42,2.24,3.63,5.18,3.63,8.82,0,3.04-.87,5.63-2.61,7.77-1.74,2.14-4.31,3.53-7.71,4.17l10.8,17.82h-5.04Z"/><path class="cls-3" d="M365.15,266.63c0-2.76-.8-4.89-2.4-6.39-1.6-1.5-4.12-2.25-7.56-2.25h-8.4v17.46h8.46c3.28,0,5.75-.8,7.41-2.4,1.66-1.6,2.49-3.74,2.49-6.42Z"/><path class="cls-3" d="M398.56,468.23h-39.89c24.87-35.71,40.72-78.8,40.91-122.74h-79.78v206.61c108.46-6.86,205.55-96.63,210.7-206.61h-94.1c-3.73,43.05-13.32,86.66-37.84,122.74ZM345.41,410.69c-2.68-2.18-4.22-5.27-4.62-9.27h4.08c.36,2.68,1.48,4.85,3.36,6.51,1.88,1.66,4.36,2.49,7.44,2.49s5.37-.8,6.99-2.4,2.43-3.64,2.43-6.12c0-6.08-4.38-9.12-13.14-9.12h-1.32v-3.54h1.38c8.16,0,12.24-2.66,12.24-7.98,0-2.32-.76-4.19-2.28-5.61-1.52-1.42-3.68-2.13-6.48-2.13s-4.97.71-6.75,2.13c-1.78,1.42-2.83,3.41-3.15,5.97h-4.08c.28-3.64,1.69-6.51,4.23-8.61,2.54-2.1,5.83-3.15,9.87-3.15,2.68,0,4.98.48,6.9,1.44s3.37,2.27,4.35,3.93c.98,1.66,1.47,3.53,1.47,5.61,0,2.52-.74,4.7-2.22,6.54-1.48,1.84-3.58,2.98-6.3,3.42v.3c2.84.56,5.1,1.79,6.78,3.69,1.68,1.9,2.52,4.39,2.52,7.47,0,3.44-1.15,6.25-3.45,8.43-2.3,2.18-5.63,3.27-9.99,3.27s-7.58-1.09-10.26-3.27Z"/><path class="cls-3" d="M162.29,308.67c6.26-40.76,14.06-84.18,37.84-118.65h37.84c-21.34,35.49-37.06,76.69-36.82,118.65h79.78V103.08c-5.71-4.1-19.17.43-26.61,2.03-94.05,20.13-171.68,102.14-182.1,198.48l3.12,5.08h86.94ZM260.93,254.45v3.48h-11.64v38.46h-4.2v-38.46h-11.7v-3.48h27.54Z"/></svg>