<?xml version="1.0" encoding="UTF-8"?><svg id="katman_1" xmlns="http://www.w3.org/2000/svg" viewBox="0 0 991.32 1081.55"><defs><style>.cls-1{fill:#00bd8d;}.cls-2{fill:#0060ab;}</style></defs><path d="M167.06,864.5c4.6,2.34,8.13,5.69,10.59,10.05,2.45,4.36,3.68,9.48,3.68,15.38s-1.23,11.01-3.68,15.34c-2.45,4.33-5.98,7.64-10.59,9.92-4.6,2.29-10.05,3.43-16.33,3.43h-17.95v-57.65h17.95c6.29,0,11.73,1.17,16.33,3.51ZM167.76,906.52c3.91-3.94,5.87-9.47,5.87-16.58s-1.97-12.76-5.91-16.79c-3.94-4.02-9.61-6.04-17-6.04h-10.42v45.32h10.42c7.44,0,13.12-1.97,17.04-5.91Z"/><path d="M198.78,860.99v57.65h-7.53v-57.65h7.53Z"/><path d="M247.12,910.32c-1.3,2.34-3.2,4.32-5.71,5.91-2.51,1.6-5.5,2.56-8.97,2.89v4.71c3.25-.06,5.84.63,7.77,2.07,1.93,1.43,2.9,3.47,2.9,6.12s-.94,4.66-2.81,6.2c-1.88,1.54-4.3,2.32-7.28,2.32h-9.51v-4.88h8.02c1.82,0,3.16-.28,4.01-.83.85-.55,1.28-1.49,1.28-2.81s-.43-2.18-1.28-2.73c-.86-.55-2.19-.83-4.01-.83h-4.14v-9.35c-5.18-.44-9.37-2.09-12.57-4.96-3.2-2.87-4.83-6.51-4.88-10.92h8.02c.28,2.7,1.39,4.98,3.35,6.82,1.96,1.85,4.81,2.77,8.56,2.77s6.41-.9,8.48-2.69c2.07-1.79,3.1-4.09,3.1-6.91,0-2.2-.61-4-1.82-5.38-1.21-1.38-2.73-2.43-4.55-3.14-1.82-.72-4.27-1.49-7.36-2.32-3.8-.99-6.85-1.99-9.14-2.98-2.29-.99-4.25-2.55-5.87-4.67-1.63-2.12-2.44-4.98-2.44-8.56,0-3.14.8-5.93,2.4-8.35,1.6-2.43,3.85-4.3,6.74-5.62,2.9-1.32,6.22-1.99,9.97-1.99,5.4,0,9.83,1.35,13.27,4.05,3.45,2.7,5.39,6.29,5.83,10.75h-8.27c-.28-2.2-1.43-4.15-3.47-5.83-2.04-1.68-4.74-2.52-8.1-2.52-3.14,0-5.71.81-7.69,2.44-1.98,1.63-2.98,3.9-2.98,6.82,0,2.1.59,3.8,1.78,5.13,1.19,1.32,2.65,2.33,4.38,3.02,1.74.69,4.18,1.48,7.32,2.36,3.8,1.05,6.86,2.08,9.18,3.1,2.32,1.02,4.3,2.59,5.96,4.71,1.65,2.12,2.48,5,2.48,8.64,0,2.59-.65,5.06-1.94,7.4Z"/><path d="M314.81,860.99v6.12h-25.06v19.44h20.35v6.12h-20.35v25.97h-7.53v-57.65h32.59Z"/><path d="M335.41,915.45c-4.41-2.51-7.9-6.01-10.46-10.5-2.56-4.49-3.85-9.55-3.85-15.18s1.28-10.68,3.85-15.18,6.05-8,10.46-10.5c4.41-2.51,9.29-3.76,14.64-3.76s10.31,1.25,14.72,3.76c4.41,2.51,7.88,6,10.42,10.46,2.54,4.47,3.8,9.54,3.8,15.22s-1.27,10.75-3.8,15.22c-2.54,4.47-6.01,7.95-10.42,10.46-4.41,2.51-9.32,3.76-14.72,3.76s-10.23-1.25-14.64-3.76ZM360.92,909.86c3.23-1.87,5.76-4.55,7.61-8.02,1.85-3.47,2.77-7.5,2.77-12.08s-.92-8.67-2.77-12.12c-1.85-3.45-4.37-6.11-7.57-7.98-3.2-1.87-6.84-2.81-10.92-2.81s-7.72.94-10.92,2.81c-3.2,1.88-5.72,4.54-7.57,7.98-1.85,3.45-2.77,7.49-2.77,12.12s.92,8.6,2.77,12.08c1.85,3.47,4.38,6.15,7.61,8.02,3.23,1.88,6.85,2.81,10.88,2.81s7.65-.94,10.88-2.81Z"/><path d="M434.24,918.63h-7.53l-30.27-45.9v45.9h-7.53v-57.73h7.53l30.27,45.82v-45.82h7.53v57.73Z"/><path d="M454.59,912.51h20.18v6.12h-27.71v-57.65h7.53v51.53Z"/><path d="M516.87,905.81h-25.14l-4.63,12.82h-7.94l20.84-57.32h8.68l20.76,57.32h-7.94l-4.63-12.82ZM514.72,899.69l-10.42-29.11-10.42,29.11h20.84Z"/><path d="M568.89,918.63l-13.73-23.57h-9.1v23.57h-7.53v-57.65h18.61c4.35,0,8.04.74,11.04,2.23,3,1.49,5.25,3.5,6.74,6.04,1.49,2.54,2.23,5.43,2.23,8.68,0,3.97-1.15,7.47-3.43,10.5-2.29,3.03-5.72,5.05-10.3,6.04l14.47,24.15h-9.01ZM546.06,889.02h11.08c4.08,0,7.14-1,9.18-3.02,2.04-2.01,3.06-4.7,3.06-8.06s-1.01-6.07-3.02-7.94c-2.01-1.87-5.09-2.81-9.22-2.81h-11.08v21.83Z"/><path d="M646.38,860.99v6.12h-15.71v51.53h-7.53v-51.53h-15.8v-6.12h39.04Z"/><path d="M689.72,905.81h-25.14l-4.63,12.82h-7.94l20.84-57.32h8.68l20.76,57.32h-7.94l-4.63-12.82ZM687.57,899.69l-10.42-29.11-10.42,29.11h20.84Z"/><path d="M742.65,918.63l-23.74-26.3v26.3h-7.53v-57.65h7.53v26.71l23.82-26.71h9.51l-26.14,28.86,26.38,28.78h-9.84Z"/><path d="M768.46,860.99v57.65h-7.53v-57.65h7.53Z"/><path d="M839.75,861.4v57.23h-7.53v-42.68l-19.02,42.68h-5.29l-19.1-42.76v42.76h-7.53v-57.23h8.1l21.17,47.31,21.17-47.31h8.02Z"/><path d="M860.01,860.99v57.65h-7.53v-57.65h7.53Z"/><path d="M59.42,966.35v19.27h21.01v6.2h-21.01v19.85h23.49v6.2h-31.02v-57.73h31.02v6.2h-23.49Z"/><path d="M117.89,989.1l17.7,28.78h-8.52l-13.81-22.5-13.15,22.5h-8.35l17.62-28.78-17.7-28.86h8.44l13.9,22.58,13.23-22.58h8.44l-17.78,28.86Z"/><path d="M181.16,960.23v6.12h-15.71v51.53h-7.53v-51.53h-15.8v-6.12h39.04Z"/><path d="M197.95,966.35v19.27h21.01v6.2h-21.01v19.85h23.49v6.2h-31.02v-57.73h31.02v6.2h-23.49Z"/><path d="M263.21,1017.88l-13.73-23.57h-9.1v23.57h-7.53v-57.65h18.61c4.35,0,8.04.74,11.04,2.23,3,1.49,5.25,3.5,6.74,6.04,1.49,2.54,2.23,5.43,2.23,8.68,0,3.97-1.15,7.47-3.43,10.5-2.29,3.03-5.72,5.05-10.3,6.04l14.47,24.15h-9.01ZM240.38,988.27h11.08c4.08,0,7.14-1,9.18-3.02,2.04-2.01,3.06-4.7,3.06-8.06s-1.01-6.07-3.02-7.94c-2.01-1.87-5.09-2.81-9.22-2.81h-11.08v21.83Z"/><path d="M328.46,1017.88h-7.53l-30.27-45.9v45.9h-7.53v-57.73h7.53l30.27,45.82v-45.82h7.53v57.73Z"/><path d="M375.35,1005.06h-25.14l-4.63,12.82h-7.94l20.84-57.32h8.68l20.76,57.32h-7.94l-4.63-12.82ZM373.2,998.94l-10.42-29.11-10.42,29.11h20.84Z"/><path d="M404.55,1011.76h20.18v6.12h-27.71v-57.65h7.53v51.53Z"/><path d="M487.42,960.23v6.12h-25.06v19.44h20.35v6.12h-20.35v25.97h-7.53v-57.65h32.59Z"/><path d="M503.88,960.23v36.47c0,5.13,1.25,8.93,3.76,11.41,2.51,2.48,6,3.72,10.46,3.72s7.87-1.24,10.38-3.72c2.51-2.48,3.76-6.29,3.76-11.41v-36.47h7.53v36.39c0,4.8-.97,8.84-2.89,12.12-1.93,3.28-4.54,5.72-7.82,7.32-3.28,1.6-6.96,2.4-11.04,2.4s-7.76-.8-11.04-2.4c-3.28-1.6-5.87-4.04-7.77-7.32-1.9-3.28-2.85-7.32-2.85-12.12v-36.39h7.53Z"/><path d="M597.67,1017.88h-7.53l-30.27-45.9v45.9h-7.53v-57.73h7.53l30.27,45.82v-45.82h7.53v57.73Z"/><path d="M644.77,963.75c4.6,2.34,8.13,5.69,10.59,10.05,2.45,4.36,3.68,9.48,3.68,15.38s-1.23,11.01-3.68,15.34c-2.45,4.33-5.98,7.64-10.59,9.92-4.6,2.29-10.05,3.43-16.33,3.43h-17.95v-57.65h17.95c6.29,0,11.73,1.17,16.33,3.51ZM645.47,1005.76c3.91-3.94,5.87-9.47,5.87-16.58s-1.97-12.76-5.91-16.79c-3.94-4.02-9.61-6.04-17-6.04h-10.42v45.32h10.42c7.44,0,13.12-1.97,17.04-5.91Z"/><path d="M677.02,1016.43c-3.01-1.35-5.36-3.23-7.07-5.62-1.71-2.4-2.59-5.17-2.65-8.31h8.02c.28,2.7,1.39,4.98,3.35,6.82,1.96,1.85,4.81,2.77,8.56,2.77s6.41-.9,8.48-2.69c2.07-1.79,3.1-4.09,3.1-6.91,0-2.2-.61-4-1.82-5.38-1.21-1.38-2.73-2.43-4.55-3.14-1.82-.72-4.27-1.49-7.36-2.32-3.8-.99-6.85-1.99-9.14-2.98-2.29-.99-4.25-2.55-5.87-4.67-1.63-2.12-2.44-4.98-2.44-8.56,0-3.14.8-5.93,2.4-8.35,1.6-2.43,3.85-4.3,6.74-5.62,2.9-1.32,6.22-1.99,9.97-1.99,5.4,0,9.83,1.35,13.27,4.05,3.45,2.7,5.39,6.29,5.83,10.75h-8.27c-.28-2.2-1.43-4.15-3.47-5.83-2.04-1.68-4.74-2.52-8.1-2.52-3.14,0-5.71.81-7.69,2.44-1.98,1.63-2.98,3.9-2.98,6.82,0,2.1.59,3.8,1.78,5.13,1.19,1.32,2.65,2.33,4.38,3.02,1.74.69,4.18,1.48,7.32,2.36,3.8,1.05,6.86,2.08,9.18,3.1,2.32,1.02,4.3,2.59,5.96,4.71,1.65,2.12,2.48,5,2.48,8.64,0,2.81-.74,5.46-2.23,7.94s-3.69,4.49-6.62,6.04c-2.92,1.54-6.37,2.32-10.34,2.32s-7.21-.67-10.21-2.03Z"/><path d="M775.07,960.23v6.12h-15.71v51.53h-7.53v-51.53h-15.8v-6.12h39.04Z"/><path d="M791.86,966.35v19.27h21.01v6.2h-21.01v19.85h23.49v6.2h-31.02v-57.73h31.02v6.2h-23.49Z"/><path d="M860.84,1005.06h-25.14l-4.63,12.82h-7.94l20.84-57.32h8.68l20.76,57.32h-7.94l-4.63-12.82ZM858.69,998.94l-10.42-29.11-10.42,29.11h20.84Z"/><path d="M940.98,960.65v57.23h-7.53v-42.68l-19.02,42.68h-5.29l-19.1-42.76v42.76h-7.53v-57.23h8.1l21.17,47.31,21.17-47.31h8.02Z"/><path class="cls-2" d="M586.13,592.17v42.17h-88.03v45.55h65.87v40.94h-65.87v87.41h-52.63v-216.07h140.66Z"/><path class="cls-2" d="M769.27,592.17v42.17h-57.25v173.91h-52.63v-173.91h-57.25v-42.17h167.13Z"/><path class="cls-2" d="M352.09,652.67c11.32,11.32,17.06,27.31,17.06,47.54s-5.74,36.12-17.07,47.24c-11.31,11.11-27.31,16.74-47.53,16.74h-23.43v42.55h26.82c22.23,0,42.03-4.5,58.86-13.37,16.79-8.85,29.95-21.49,39.1-37.58,9.16-16.11,13.81-34.81,13.81-55.58s-4.65-39.72-13.81-55.74c-9.15-15.99-22.26-28.58-38.95-37.43-16.74-8.87-36.59-13.37-59.01-13.37h-26.82v41.94h23.43c20.23,0,36.22,5.74,47.54,17.06Z"/><rect class="cls-1" x="225.09" y="593.67" width="49.63" height="213.07"/><rect class="cls-1" x="284.84" y="682.7" width="70.79" height="34.4"/><path class="cls-2" d="M557.99,230.31c0-2.76-.8-4.89-2.4-6.39-1.6-1.5-4.12-2.25-7.56-2.25h-8.4v17.46h8.46c3.28,0,5.75-.8,7.41-2.4,1.66-1.6,2.49-3.74,2.49-6.42Z"/><path class="cls-2" d="M578.82,194.53c-5.53-13.57-14.16-26.14-19.78-39.67h38.59c21.98,34.96,32.46,76.39,34.73,117.53l2.81,3.45h94.91c-5.04-113.39-102.8-205.79-214.84-212.76v212.76h81.35c-.5-27.38-7.47-56.06-17.77-81.31ZM557.75,260.07l-10.38-17.52h-7.74v17.52h-4.2v-41.94h12.6c4.68,0,8.23,1.12,10.65,3.36,2.42,2.24,3.63,5.18,3.63,8.82,0,3.04-.87,5.63-2.61,7.77-1.74,2.14-4.31,3.53-7.71,4.17l10.8,17.82h-5.04Z"/><path class="cls-2" d="M595.54,438.54h-40.67c25.36-36.41,41.52-80.35,41.72-125.15h-81.35v210.67c110.59-7,209.59-98.53,214.84-210.67h-95.95c-3.81,43.89-13.58,88.37-38.59,125.15ZM538.25,374.38c-2.68-2.18-4.22-5.27-4.62-9.27h4.08c.36,2.68,1.48,4.85,3.36,6.51,1.88,1.66,4.36,2.49,7.44,2.49s5.37-.8,6.99-2.4c1.62-1.6,2.43-3.64,2.43-6.12,0-6.08-4.38-9.12-13.14-9.12h-1.32v-3.54h1.38c8.16,0,12.24-2.66,12.24-7.98,0-2.32-.76-4.19-2.28-5.61-1.52-1.42-3.68-2.13-6.48-2.13s-4.97.71-6.75,2.13c-1.78,1.42-2.83,3.41-3.15,5.97h-4.08c.28-3.64,1.69-6.51,4.23-8.61,2.54-2.1,5.83-3.15,9.87-3.15,2.68,0,4.98.48,6.9,1.44s3.37,2.27,4.35,3.93c.98,1.66,1.47,3.53,1.47,5.61,0,2.52-.74,4.7-2.22,6.54-1.48,1.84-3.58,2.98-6.3,3.42v.3c2.84.56,5.1,1.79,6.78,3.69,1.68,1.9,2.52,4.39,2.52,7.47,0,3.44-1.15,6.25-3.45,8.43-2.3,2.18-5.63,3.27-9.99,3.27s-7.58-1.09-10.26-3.27Z"/><path class="cls-2" d="M354.62,275.85c6.39-41.56,14.34-85.83,38.59-120.98h38.59c-21.76,36.19-37.79,78.19-37.55,120.98h81.35V66.22c-5.82-4.18-19.55.44-27.14,2.07-95.9,20.53-175.05,104.15-185.68,202.38l3.19,5.18h88.65ZM453.77,218.13v3.48h-11.64v38.46h-4.2v-38.46h-11.7v-3.48h27.54Z"/><path class="cls-2" d="M394.25,313.39c-.33,33.12,9.94,69.86,24.66,99.45,4.34,8.72,11.19,16.69,14.97,25.7h-41.72c-19.26-37.91-33.19-78.85-35.78-121.7l-2.81-3.45h-90.73c8.31,95.24,80.21,177.97,172.05,202.36,6.67,1.77,40.18,11.36,42.64,2.84l-1.93-205.2h-81.35ZM452.3,374.38c-2.3,2.18-5.63,3.27-9.99,3.27s-7.58-1.09-10.26-3.27c-2.68-2.18-4.22-5.27-4.62-9.27h4.08c.36,2.68,1.48,4.85,3.36,6.51,1.88,1.66,4.36,2.49,7.44,2.49s5.37-.8,6.99-2.4c1.62-1.6,2.43-3.64,2.43-6.12,0-6.08-4.38-9.12-13.14-9.12h-1.32v-3.54h1.38c8.16,0,12.24-2.66,12.24-7.98,0-2.32-.76-4.19-2.28-5.61-1.52-1.42-3.68-2.13-6.48-2.13s-4.97.71-6.75,2.13c-1.78,1.42-2.83,3.41-3.15,5.97h-4.08c.28-3.64,1.69-6.51,4.23-8.61,2.54-2.1,5.83-3.15,9.87-3.15,2.68,0,4.98.48,6.9,1.44s3.37,2.27,4.35,3.93c.98,1.66,1.47,3.53,1.47,5.61,0,2.52-.74,4.7-2.22,6.54-1.48,1.84-3.58,2.98-6.3,3.42v.3c2.84.56,5.1,1.79,6.78,3.69,1.68,1.9,2.52,4.39,2.52,7.47,0,3.44-1.15,6.25-3.45,8.43Z"/></svg>